<?xml version="1.0" encoding="UTF-8"?>
<svg width="49px" height="43px" viewBox="0 0 49 43" version="1.1" xmlns="http://www.w3.org/2000/svg" xmlns:xlink="http://www.w3.org/1999/xlink">
    <title>BugHerd Logo (box) Copy 3</title>
    <g id="Extension-&amp;-Toggle-states" stroke="none" stroke-width="1" fill="none" fill-rule="evenodd">
        <g id="Extension-states" transform="translate(-756.000000, -337.000000)">
            <g id="BugHerd" transform="translate(756.000000, 337.000000)">
                <rect id="Rectangle" fill="#222222" x="0" y="0.122807018" width="49" height="42.7368421" rx="5"></rect>
                <path d="M15.0673352,18.8622574 C16.067642,18.7395044 16.8055703,18.1042525 16.8568204,17.1248437 C16.9602492,15.1490237 16.9635916,13.1563881 16.8098411,11.1863601 C16.7695466,10.6697509 16.0811973,9.94238757 15.5506837,9.78338777 C14.5834295,9.49322716 13.5116324,9.55544447 12.460261,9.46875128 L12.460261,19.0124758 C13.3641953,18.9646451 14.2222643,18.9661398 15.0673352,18.8622574 Z M12.4652746,33.6141128 C13.6523847,33.5369484 14.7938152,33.5505876 15.9025645,33.3654304 C16.9712049,33.1869994 17.7197174,32.4329181 17.7726388,31.3356139 C17.8649262,29.421077 17.8781102,27.4942088 17.7678109,25.5817271 C17.7011485,24.4274371 16.935924,23.626833 15.7599553,23.4659648 C14.7005993,23.3211648 13.6202605,23.3308804 12.4652746,23.2679157 L12.4652746,33.6141128 Z M19.431399,20.9894169 C22.1168339,22.3391402 22.9225386,24.6370702 22.8150247,27.4233969 C22.7526331,29.0367497 22.9095404,30.6818651 22.6499471,32.2597185 C22.0967795,35.6211349 19.4135728,37.8174247 16.0104498,37.886555 C13.97047,37.9280332 11.9286333,37.9089757 9.88791078,37.8902918 C8.49078644,37.8775868 7.55157128,36.9547901 7.54971439,35.5505098 C7.53801598,26.2162316 7.5393158,16.8819533 7.54860025,7.54767501 C7.54971439,6.282216 8.34149245,5.24133719 9.50167757,5.22582957 C11.9691135,5.19294595 14.4616175,5.11279212 16.9010144,5.40855789 C19.9552278,5.7786855 21.8013482,8.0786708 21.8966067,11.1861733 C21.948971,12.8957481 21.9504565,14.6096201 21.8973494,16.3191949 C21.8377432,18.2369081 20.9152401,19.745818 19.431399,20.9894169 L19.431399,20.9894169 Z" id="Fill-5" fill="#FFFFFE"></path>
                <path d="M30.5984609,23.9153067 C30.5984609,27.9291996 30.606229,31.8632945 30.5952091,35.7972077 C30.5896089,37.7970651 28.6040451,38.9062388 26.8836807,37.88886 C25.9946843,37.3631749 25.7789839,36.5257506 25.7807905,35.5623581 C25.7887392,31.0502277 25.7842229,26.5379155 25.7842229,22.0256032 C25.7842229,17.4225867 25.7777193,12.8193884 25.7880166,8.21637193 C25.7916297,6.56042751 26.7079048,5.64593175 28.2826623,5.67192517 C29.6624946,5.69464669 30.5899702,6.61786752 30.5946672,8.02496584 C30.606229,11.4166527 30.5984609,14.8085212 30.5984609,18.200208 C30.5986416,18.5299428 30.5984609,18.8596775 30.5984609,19.257395 L35.8529518,19.257395 C35.868488,18.9222071 35.8981152,18.5741134 35.8986571,18.2262015 C35.9022702,14.8646888 35.8896244,11.5031762 35.9064252,8.14184534 C35.914374,6.55570144 36.8420303,5.65701986 38.3831862,5.67192517 C39.7823484,5.68537631 40.7053077,6.58442144 40.7107273,7.9951552 C40.7237344,11.3263119 40.715063,14.6576503 40.715063,17.988807 C40.715063,23.8636834 40.7161469,29.7387415 40.714521,35.6137996 C40.7139791,37.3177319 39.8687008,38.2273198 38.3036986,38.2204124 C36.7618201,38.2136869 35.9058833,37.2828316 35.9028122,35.578354 C35.8964893,32.0654252 35.900825,28.5524963 35.9006443,25.0397493 L35.9006443,23.9153067 L30.5984609,23.9153067" id="Fill-6" fill="#FFFFFE"></path>
                <path d="M45.8210648,36.3142269 C45.8143552,37.2984215 45.1394083,37.9639395 44.162633,37.9495933 C43.2278976,37.93588 42.583878,37.2546443 42.5872328,36.2832137 C42.5906925,35.2983861 43.2592442,34.6429948 44.245455,34.6576575 C45.1895209,34.6715818 45.8276696,35.3425852 45.8210648,36.3142269" id="Fill-12" fill="#86BAD3"></path>
            </g>
        </g>
    </g>
</svg>